<?xml version="1.0" encoding="iso-8859-1"?>
<!-- Generator: Adobe Illustrator 19.0.0, SVG Export Plug-In . SVG Version: 6.00 Build 0)  -->
<svg version="1.1" id="Capa_1" xmlns="http://www.w3.org/2000/svg" xmlns:xlink="http://www.w3.org/1999/xlink" x="0px" y="0px"
	 viewBox="0 0 465.995 465.995" style="enable-background:new 0 0 465.995 465.995;" xml:space="preserve">
<g>
	<g>
		<g>
			<rect x="127.995" y="264.971" width="16" height="16"/>
			<rect x="95.995" y="248.971" width="16" height="16"/>
			<rect x="71.995" y="272.971" width="16" height="16"/>
			<rect x="287.995" y="192.971" width="16" height="16"/>
			<rect x="319.995" y="208.971" width="16" height="16"/>
			<rect x="343.995" y="184.971" width="16" height="16"/>
			<rect x="257.995" y="344.971" width="16" height="16"/>
			<rect x="289.995" y="328.971" width="16" height="16"/>
			<rect x="321.995" y="264.971" width="16" height="16"/>
			<rect x="249.995" y="256.971" width="16" height="16"/>
			<rect x="167.995" y="352.971" width="16" height="16"/>
			<rect x="127.995" y="336.971" width="16" height="16"/>
			<rect x="87.995" y="360.971" width="16" height="16"/>
			<path d="M277.995,120.971c15.464,0,28-12.536,28-28s-12.536-28-28-28c-15.464,0-28,12.536-28,28S262.531,120.971,277.995,120.971
				z M277.995,80.971c6.627,0,12,5.373,12,12s-5.373,12-12,12c-6.627,0-12-5.373-12-12S271.368,80.971,277.995,80.971z"/>
			<path d="M361.995,80.971c22.091,0,40-17.909,40-40c-0.026-22.08-17.92-39.974-40-40c-22.091,0-40,17.909-40,40
				S339.904,80.971,361.995,80.971z M361.995,16.971c13.255,0,24,10.745,24,24s-10.745,24-24,24s-24-10.745-24-24
				S348.74,16.971,361.995,16.971z"/>
			<path d="M425.995,320.971c-0.688,0-1.336,0.168-2.016,0.2v-77.304v-9.296c-0.007-45.066-36.546-81.595-81.612-81.588
				c-3.374,0-6.744,0.21-10.092,0.628l-100.136,12.52c-5.409,0.672-10.879,0.672-16.288,0l-24.072-3.008
				c0.04-0.728,0.216-1.416,0.216-2.152c0.186-21.905-17.421-39.813-39.326-40c-1.995-0.017-3.988,0.117-5.962,0.4
				c-12.798-28.078-45.935-40.465-74.013-27.666c-22.756,10.372-35.848,34.604-32.051,59.322c-0.248,0-0.432-0.056-0.648-0.056
				C17.904,152.974-0.003,170.885,0,192.976c0.002,16.031,9.575,30.512,24.323,36.795c-0.096,1.6-0.328,3.2-0.328,4.8v91.032
				c0,45.066,36.534,81.6,81.6,81.6c3.38-0.001,6.757-0.209,10.112-0.624l100.144-12.52c5.403-0.672,10.869-0.672,16.272,0
				l42.512,5.312c2.662,21.067,21.899,35.986,42.965,33.324c0.565-0.071,1.129-0.155,1.691-0.252
				c12.889,28.056,46.081,40.352,74.137,27.463c19.892-9.138,32.62-29.045,32.567-50.935c-0.044-2.704-0.282-5.402-0.712-8.072
				c0.24,0,0.464,0.072,0.712,0.072c22.091,0,40-17.909,40-40C465.995,338.88,448.087,320.971,425.995,320.971z M182.587,186.567
				c1.989-2.402,3.689-5.029,5.064-7.828v-0.008l26.216,3.272c6.725,0.848,13.531,0.848,20.256,0l100.136-12.52
				c35.95-4.493,68.736,21.007,73.229,56.958c0.337,2.697,0.506,5.412,0.506,8.13v9.256c0.028,36.23-29.32,65.623-65.549,65.65
				c-2.737,0.002-5.471-0.167-8.186-0.506l-100.136-12.56c-6.726-0.84-13.53-0.84-20.256,0l-100.136,12.56
				c-35.95,4.493-68.736-21.007-73.23-56.958c-0.339-2.713-0.508-5.444-0.506-8.178v-9.264c0-0.536,0.096-1.08,0.112-1.6
				c19.866-0.117,36.627-14.815,39.336-34.496c15.913,4.935,33.198,2.5,47.128-6.64
				C143.494,205.849,168.573,203.491,182.587,186.567z M151.995,144.971c-0.02-2.662-0.231-5.32-0.632-7.952
				c0.216,0,0.416-0.048,0.632-0.048c13.255,0,24,10.745,24,24s-10.745,24-24,24c-4.676-0.033-9.237-1.447-13.112-4.064
				C147.358,170.851,152.002,158.122,151.995,144.971z M95.995,104.971c22.091,0,40,17.909,40,40s-17.909,40-40,40s-40-17.909-40-40
				C56.022,122.891,73.915,104.998,95.995,104.971z M15.995,192.971c0-13.255,10.745-24,24-24c1.983,0.024,3.955,0.292,5.872,0.8
				c4.261,8.581,10.637,15.935,18.528,21.368c-0.207,0.592-0.341,1.207-0.4,1.832c0,13.255-10.745,24-24,24
				S15.995,206.226,15.995,192.971z M283.523,367.144c-3.944,4.693-6.746,10.236-8.184,16.195l-0.032,0.032l-41.192-5.152
				c-6.721-0.84-13.519-0.84-20.24,0l-100.144,12.472c-35.95,4.493-68.736-21.007-73.23-56.958c-0.337-2.697-0.506-5.412-0.506-8.13
				v-33.248c17.513,23.716,46.469,36.124,75.72,32.448l100.136-12.512c5.409-0.672,10.879-0.672,16.288,0l100.136,12.512
				c29.251,3.676,58.207-8.732,75.72-32.448v24v9.12c-11.697,5.938-19.721,17.253-21.456,30.256
				c-15.945-4.725-33.154-2.327-47.2,6.576C322.59,348.23,297.601,350.395,283.523,367.144z M313.995,416.971
				c-13.255,0-24-10.745-24-24s10.745-24,24-24s24,10.745,24,24S327.25,416.971,313.995,416.971z M383.02,446.86
				c-4.194,1.424-8.596,2.138-13.024,2.111c-15.016,0.007-28.767-8.409-35.592-21.784c12.106-7.154,19.55-20.154,19.592-34.216
				c-0.043-6.363-1.624-12.62-4.608-18.24c11.91-6.887,26.475-7.361,38.808-1.264c3.293,9.942,10.365,18.189,19.688,22.96
				C414.944,417.22,403.812,439.8,383.02,446.86z M425.995,384.971c-13.255,0-24-10.745-24-24s10.745-24,24-24s24,10.745,24,24
				S439.25,384.971,425.995,384.971z"/>
		</g>
	</g>
</g>
<g>
</g>
<g>
</g>
<g>
</g>
<g>
</g>
<g>
</g>
<g>
</g>
<g>
</g>
<g>
</g>
<g>
</g>
<g>
</g>
<g>
</g>
<g>
</g>
<g>
</g>
<g>
</g>
<g>
</g>
</svg>
