<?xml version="1.0" encoding="iso-8859-1"?>
<!-- Generator: Adobe Illustrator 19.0.0, SVG Export Plug-In . SVG Version: 6.00 Build 0)  -->
<svg version="1.1" id="Capa_1" xmlns="http://www.w3.org/2000/svg" xmlns:xlink="http://www.w3.org/1999/xlink" x="0px" y="0px"
	 viewBox="0 0 512 512" style="enable-background:new 0 0 512 512;" xml:space="preserve">
<g>
	<g>
		<path d="M476.511,35.489c-47.32-47.318-124.313-47.318-171.633,0L35.49,304.877c-47.32,47.32-47.32,124.314,0,171.634
			C59.15,500.17,90.228,512,121.307,512s62.157-11.83,85.818-35.489l109.404-109.404c3.906-3.907,3.907-10.24,0-14.146
			s-10.24-3.906-14.146,0L192.979,462.365c-39.52,39.52-103.823,39.52-143.343,0s-39.52-103.822,0-143.342L319.023,49.635
			c39.52-39.52,103.823-39.52,143.343,0c39.52,39.52,39.52,103.822,0,143.342L358.679,296.664c-3.906,3.907-3.906,10.24,0,14.146
			c3.907,3.906,10.24,3.906,14.146,0l103.686-103.687C523.83,159.804,523.83,82.81,476.511,35.489z"/>
	</g>
</g>
<g>
	<g>
		<path d="M356.093,230.507l-74.6-74.6c-11.518-11.517-30.256-11.517-41.775,0l-82.888,82.888
			c-5.579,5.579-8.652,12.998-8.652,20.888s3.073,15.308,8.652,20.888l74.6,74.6c5.579,5.579,12.998,8.652,20.888,8.652
			c7.89,0,15.308-3.074,20.887-8.652l82.889-82.888C367.61,260.764,367.61,242.025,356.093,230.507z M341.948,258.137
			l-82.889,82.888c-1.8,1.8-4.195,2.793-6.742,2.793s-4.941-0.991-6.741-2.793l-74.6-74.6c-1.8-1.8-2.793-4.195-2.793-6.742
			c0-2.547,0.991-4.941,2.793-6.741l82.887-82.888c1.859-1.859,4.301-2.789,6.742-2.789c2.442,0,4.883,0.929,6.742,2.788l74.6,74.6
			C345.665,248.369,345.665,254.419,341.948,258.137z"/>
	</g>
</g>
<g>
	<g>
		<path d="M135.104,292.168c-1.87-1.86-4.441-2.931-7.072-2.931c-2.641,0-5.211,1.07-7.082,2.931
			c-1.86,1.86-2.931,4.441-2.931,7.072c0,2.641,1.07,5.211,2.931,7.072c1.87,1.87,4.441,2.931,7.082,2.931
			c2.631,0,5.201-1.06,7.072-2.931c1.86-1.86,2.931-4.431,2.931-7.072C138.035,296.609,136.964,294.029,135.104,292.168z"/>
	</g>
</g>
<g>
	<g>
		<path d="M176.543,333.617c-1.86-1.86-4.441-2.931-7.072-2.931c-2.631,0-5.211,1.07-7.072,2.931s-2.931,4.441-2.931,7.072
			c0,2.631,1.07,5.211,2.931,7.072s4.441,2.931,7.072,2.931c2.631,0,5.211-1.071,7.072-2.931c1.86-1.86,2.931-4.441,2.931-7.072
			C179.474,338.058,178.403,335.478,176.543,333.617z"/>
	</g>
</g>
<g>
	<g>
		<path d="M217.992,375.056c-1.86-1.86-4.441-2.931-7.072-2.931c-2.641,0-5.221,1.07-7.082,2.931
			c-1.86,1.86-2.921,4.441-2.921,7.072c0,2.641,1.06,5.211,2.921,7.072c1.87,1.87,4.441,2.931,7.082,2.931
			c2.631,0,5.201-1.059,7.072-2.931c1.86-1.86,2.931-4.431,2.931-7.072C220.923,379.497,219.853,376.916,217.992,375.056z"/>
	</g>
</g>
<g>
	<g>
		<path d="M79.842,347.43c-1.86-1.86-4.441-2.931-7.072-2.931c-2.631,0-5.211,1.07-7.072,2.931s-2.931,4.441-2.931,7.072
			c0,2.631,1.07,5.211,2.931,7.072c1.86,1.86,4.441,2.931,7.072,2.931c2.631,0,5.211-1.07,7.072-2.931
			c1.86-1.86,2.931-4.441,2.931-7.072C82.772,351.871,81.702,349.291,79.842,347.43z"/>
	</g>
</g>
<g>
	<g>
		<path d="M121.281,388.87c-1.86-1.86-4.431-2.921-7.072-2.921c-2.631,0-5.211,1.06-7.072,2.921c-1.86,1.87-2.931,4.441-2.931,7.082
			c0,2.631,1.07,5.201,2.931,7.072c1.86,1.86,4.441,2.931,7.072,2.931c2.641,0,5.211-1.071,7.072-2.931
			c1.87-1.87,2.931-4.441,2.931-7.072C124.211,393.311,123.151,390.74,121.281,388.87z"/>
	</g>
</g>
<g>
	<g>
		<path d="M127.532,341.189c-1.86-1.87-4.441-2.931-7.072-2.931c-2.631,0-5.211,1.06-7.072,2.931
			c-1.86,1.86-2.931,4.431-2.931,7.072c0,2.631,1.07,5.211,2.931,7.072s4.441,2.931,7.072,2.931c2.631,0,5.211-1.07,7.072-2.931
			c1.86-1.86,2.931-4.441,2.931-7.072C130.463,345.62,129.393,343.049,127.532,341.189z"/>
	</g>
</g>
<g>
	<g>
		<path d="M168.971,382.628c-1.86-1.86-4.441-2.931-7.072-2.931c-2.631,0-5.211,1.07-7.072,2.931
			c-1.86,1.86-2.931,4.441-2.931,7.072c0,2.631,1.07,5.211,2.931,7.072c1.86,1.86,4.441,2.931,7.072,2.931
			c2.631,0,5.211-1.071,7.072-2.931c1.87-1.86,2.931-4.441,2.931-7.072C171.902,387.069,170.842,384.489,168.971,382.628z"/>
	</g>
</g>
<g>
	<g>
		<path d="M162.73,430.318c-1.86-1.86-4.441-2.931-7.072-2.931c-2.641,0-5.211,1.07-7.072,2.931c-1.86,1.86-2.931,4.441-2.931,7.072
			c0,2.631,1.07,5.211,2.931,7.072c1.86,1.86,4.441,2.931,7.072,2.931c2.631,0,5.211-1.069,7.072-2.931
			c1.86-1.86,2.931-4.441,2.931-7.072C165.661,434.759,164.59,432.178,162.73,430.318z"/>
	</g>
</g>
<g>
	<g>
		<path d="M391.051,205.689c-1.87-1.87-4.441-2.931-7.072-2.931c-2.641,0-5.211,1.06-7.082,2.931
			c-1.86,1.86-2.931,4.441-2.931,7.072s1.07,5.211,2.931,7.072c1.86,1.86,4.441,2.931,7.082,2.931c2.631,0,5.211-1.07,7.072-2.931
			c1.86-1.86,2.931-4.441,2.931-7.072S392.911,207.549,391.051,205.689z"/>
	</g>
</g>
<g>
	<g>
		<path d="M349.602,164.239c-1.86-1.86-4.441-2.931-7.072-2.931c-2.631,0-5.211,1.07-7.072,2.931s-2.931,4.441-2.931,7.072
			c0,2.631,1.07,5.211,2.931,7.072c1.86,1.86,4.441,2.931,7.072,2.931c2.631,0,5.211-1.069,7.072-2.931
			c1.86-1.86,2.931-4.431,2.931-7.072C352.532,168.68,351.462,166.099,349.602,164.239z"/>
	</g>
</g>
<g>
	<g>
		<path d="M308.162,122.79c-1.86-1.86-4.441-2.921-7.072-2.921c-2.641,0-5.211,1.06-7.082,2.921c-1.86,1.87-2.921,4.441-2.921,7.082
			c0,2.631,1.06,5.201,2.921,7.072c1.87,1.86,4.441,2.931,7.082,2.931c2.631,0,5.201-1.071,7.072-2.931
			c1.86-1.87,2.931-4.441,2.931-7.072C311.093,127.231,310.023,124.661,308.162,122.79z"/>
	</g>
</g>
<g>
	<g>
		<path d="M446.303,150.427c-1.86-1.86-4.431-2.931-7.072-2.931c-2.631,0-5.211,1.07-7.072,2.931
			c-1.86,1.86-2.931,4.441-2.931,7.072c0,2.631,1.07,5.211,2.931,7.072s4.441,2.931,7.072,2.931c2.641,0,5.211-1.07,7.072-2.931
			s2.931-4.441,2.931-7.072C449.234,154.868,448.164,152.287,446.303,150.427z"/>
	</g>
</g>
<g>
	<g>
		<path d="M404.864,108.976c-1.86-1.86-4.441-2.921-7.072-2.921c-2.641,0-5.211,1.06-7.072,2.921
			c-1.86,1.86-2.931,4.441-2.931,7.072c0,2.641,1.07,5.221,2.931,7.082c1.86,1.86,4.431,2.921,7.072,2.921
			c2.631,0,5.211-1.059,7.072-2.921c1.86-1.87,2.931-4.441,2.931-7.082C407.795,113.417,406.724,110.847,404.864,108.976z"/>
	</g>
</g>
<g>
	<g>
		<path d="M398.612,156.668c-1.86-1.86-4.441-2.921-7.072-2.921c-2.631,0-5.211,1.06-7.072,2.921
			c-1.86,1.86-2.931,4.441-2.931,7.072c0,2.641,1.07,5.211,2.931,7.072c1.86,1.87,4.441,2.931,7.072,2.931
			c2.631,0,5.211-1.06,7.072-2.931c1.87-1.86,2.931-4.431,2.931-7.072C401.543,161.109,400.483,158.528,398.612,156.668z"/>
	</g>
</g>
<g>
	<g>
		<path d="M357.173,115.228c-1.86-1.86-4.441-2.931-7.072-2.931c-2.641,0-5.211,1.07-7.072,2.931
			c-1.87,1.86-2.931,4.441-2.931,7.072s1.06,5.211,2.931,7.072c1.86,1.86,4.431,2.931,7.072,2.931c2.631,0,5.211-1.07,7.072-2.931
			c1.86-1.86,2.931-4.441,2.931-7.072S359.034,117.088,357.173,115.228z"/>
	</g>
</g>
<g>
	<g>
		<path d="M363.415,67.538c-1.86-1.86-4.431-2.931-7.072-2.931c-2.631,0-5.211,1.07-7.072,2.931c-1.86,1.86-2.931,4.441-2.931,7.072
			c0,2.631,1.07,5.211,2.931,7.072c1.86,1.86,4.441,2.931,7.072,2.931c2.641,0,5.211-1.071,7.072-2.931
			c1.86-1.86,2.931-4.441,2.931-7.072C366.345,71.979,365.275,69.399,363.415,67.538z"/>
	</g>
</g>
<g>
	<g>
		<path d="M343.82,325.676c-1.86-1.87-4.441-2.931-7.072-2.931c-2.641,0-5.211,1.06-7.072,2.931c-1.87,1.86-2.931,4.431-2.931,7.072
			c0,2.631,1.06,5.211,2.931,7.072c1.86,1.86,4.431,2.931,7.072,2.931c2.631,0,5.211-1.07,7.072-2.931
			c1.86-1.86,2.931-4.441,2.931-7.072C346.751,330.117,345.681,327.536,343.82,325.676z"/>
	</g>
</g>
<g>
</g>
<g>
</g>
<g>
</g>
<g>
</g>
<g>
</g>
<g>
</g>
<g>
</g>
<g>
</g>
<g>
</g>
<g>
</g>
<g>
</g>
<g>
</g>
<g>
</g>
<g>
</g>
<g>
</g>
</svg>
