<?xml version="1.0" encoding="iso-8859-1"?>
<!-- Generator: Adobe Illustrator 18.0.0, SVG Export Plug-In . SVG Version: 6.00 Build 0)  -->
<!DOCTYPE svg PUBLIC "-//W3C//DTD SVG 1.1//EN" "http://www.w3.org/Graphics/SVG/1.1/DTD/svg11.dtd">
<svg version="1.1" id="Capa_1" xmlns="http://www.w3.org/2000/svg" xmlns:xlink="http://www.w3.org/1999/xlink" x="0px" y="0px"
	 viewBox="0 0 466.972 466.972" style="enable-background:new 0 0 466.972 466.972;" xml:space="preserve">
<g>
	<path d="M398.585,68.387C354.485,24.287,295.852,0,233.486,0s-121,24.287-165.099,68.387S0,171.119,0,233.485
		s24.287,121,68.386,165.1s102.733,68.387,165.099,68.387s121-24.287,165.1-68.387c44.1-44.1,68.386-102.733,68.386-165.1
		S442.685,112.486,398.585,68.387z M101.612,412.727c11.495-19.902,27.515-37.118,46.573-50.026l18.14-6.995l22.387,8.632
		l22.387-8.632l22.387,8.632l22.387-8.632l22.387,8.632l22.387-8.632l17.769,6.851c19.197,12.939,35.331,30.216,46.9,50.202
		c-37.979,28.052-83.738,43.212-131.829,43.212C185.376,455.972,139.599,440.8,101.612,412.727z M127.094,213.7L120.96,98.554
		h225.052L339.877,213.7c-1.045,19.603-1.423,39.496-1.125,59.128l1.11,73.231l-16.829,6.489l-22.387-8.632l-22.387,8.632
		l-22.387-8.632l-22.387,8.632l-22.387-8.632l-22.387,8.632l-22.387-8.632l-22.387,8.632l-16.83-6.489l1.111-73.231
		C128.518,253.196,128.139,233.303,127.094,213.7z M390.807,390.807c-5.363,5.363-10.953,10.414-16.746,15.152
		c-10.404-17.594-24.114-33.18-40.238-45.781l17.154-6.614l-1.227-80.901c-0.294-19.383,0.08-39.023,1.111-58.376l6.752-126.732
		H109.358l6.752,126.732c1.031,19.353,1.405,38.993,1.111,58.376l-1.227,80.901l17.054,6.575
		c-16.103,12.596-29.797,28.187-40.182,45.784c-5.776-4.728-11.352-9.768-16.701-15.116C34.143,348.784,11,292.913,11,233.485
		s23.143-115.299,65.165-157.32C118.187,34.143,174.058,11,233.486,11c59.428,0,115.299,23.143,157.321,65.165
		c42.022,42.021,65.165,97.893,65.165,157.32S432.829,348.785,390.807,390.807z"/>
	<g>
		<path d="M171.225,259.353c9.005,0,16.332-7.326,16.332-16.331s-7.326-16.331-16.332-16.331c-9.005,0-16.331,7.326-16.331,16.331
			S162.22,259.353,171.225,259.353z M171.225,237.69c2.94,0,5.332,2.392,5.332,5.331s-2.392,5.331-5.332,5.331
			c-2.939,0-5.331-2.392-5.331-5.331S168.286,237.69,171.225,237.69z"/>
		<path d="M295.746,259.353c9.005,0,16.331-7.326,16.331-16.331s-7.326-16.331-16.331-16.331s-16.331,7.326-16.331,16.331
			S286.741,259.353,295.746,259.353z M295.746,237.69c2.939,0,5.331,2.392,5.331,5.331s-2.392,5.331-5.331,5.331
			s-5.331-2.392-5.331-5.331S292.807,237.69,295.746,237.69z"/>
	</g>
</g>
<g>
</g>
<g>
</g>
<g>
</g>
<g>
</g>
<g>
</g>
<g>
</g>
<g>
</g>
<g>
</g>
<g>
</g>
<g>
</g>
<g>
</g>
<g>
</g>
<g>
</g>
<g>
</g>
<g>
</g>
</svg>
