<svg id="Flat" height="512" viewBox="0 0 512 512" width="512" xmlns="http://www.w3.org/2000/svg"><path d="m384 464h-256c0-130.667 32-168 32-168l-40-152 88-32 16-64h64l16 64 88 32-40 152s32 37.333 32 168z" fill="#efdece"/><path d="m232 464h48v32h-48z" fill="#c2856c"/><path d="m240 16h32v32h-32z" fill="#c2856c"/><path d="m216 80-8 32v304h-32v-320l32-12.8z" fill="#faa2c5"/><path d="m176 384h32v32h-32z" fill="#fc6c9f"/><path d="m336 368h-32v-256l-8-32 40 16z" fill="#faa2c5"/><g fill="#fc6c9f"><path d="m216 80-8 32v-28.8z"/><path d="m296 80 8 32v-28.8z"/><path d="m184 264h-8v16h8a8 8 0 0 0 0-16z"/><path d="m184 232h-8v16h8a8 8 0 0 0 0-16z"/><path d="m184 200h-8v16h8a8 8 0 0 0 0-16z"/><path d="m184 168h-8v16h8a8 8 0 0 0 0-16z"/><path d="m184 136h-8v16h8a8 8 0 0 0 0-16z"/><path d="m184 104h-8v16h8a8 8 0 0 0 0-16z"/><path d="m184 328h-8v16h8a8 8 0 0 0 0-16z"/><path d="m184 296h-8v16h8a8 8 0 0 0 0-16z"/><path d="m320 208a8 8 0 0 0 8 8h8v-16h-8a8 8 0 0 0 -8 8z"/><path d="m320 240a8 8 0 0 0 8 8h8v-16h-8a8 8 0 0 0 -8 8z"/><path d="m320 176a8 8 0 0 0 8 8h8v-16h-8a8 8 0 0 0 -8 8z"/><path d="m320 144a8 8 0 0 0 8 8h8v-16h-8a8 8 0 0 0 -8 8z"/><path d="m320 336a8 8 0 0 0 8 8h8v-16h-8a8 8 0 0 0 -8 8z"/><path d="m320 304a8 8 0 0 0 8 8h8v-16h-8a8 8 0 0 0 -8 8z"/><path d="m320 272a8 8 0 0 0 8 8h8v-16h-8a8 8 0 0 0 -8 8z"/><path d="m328 104a8 8 0 0 0 0 16h8v-16z"/></g></svg>