<?xml version="1.0" encoding="UTF-8" standalone="no"?>
<svg
   xmlns:dc="http://purl.org/dc/elements/1.1/"
   xmlns:cc="http://creativecommons.org/ns#"
   xmlns:rdf="http://www.w3.org/1999/02/22-rdf-syntax-ns#"
   xmlns:svg="http://www.w3.org/2000/svg"
   xmlns="http://www.w3.org/2000/svg"
   xmlns:sodipodi="http://sodipodi.sourceforge.net/DTD/sodipodi-0.dtd"
   xmlns:inkscape="http://www.inkscape.org/namespaces/inkscape"
   width="135.85899"
   height="47"
   viewBox="0 0 135.85899 47"
   version="1.1"
   id="svg6"
   sodipodi:docname="logo.svg"
   style="fill:none"
   inkscape:version="0.92.5 (2060ec1f9f, 2020-04-08)">
  <metadata
     id="metadata12">
    <rdf:RDF>
      <cc:Work
         rdf:about="">
        <dc:format>image/svg+xml</dc:format>
        <dc:type
           rdf:resource="http://purl.org/dc/dcmitype/StillImage" />
        <dc:title></dc:title>
      </cc:Work>
    </rdf:RDF>
  </metadata>
  <defs
     id="defs10" />
  <sodipodi:namedview
     pagecolor="#ffffff"
     bordercolor="#666666"
     borderopacity="1"
     objecttolerance="10"
     gridtolerance="10"
     guidetolerance="10"
     inkscape:pageopacity="0"
     inkscape:pageshadow="2"
     inkscape:window-width="1848"
     inkscape:window-height="1016"
     id="namedview8"
     showgrid="false"
     fit-margin-top="0"
     fit-margin-left="0"
     fit-margin-right="0"
     fit-margin-bottom="0"
     inkscape:zoom="4.95689"
     inkscape:cx="77.034073"
     inkscape:cy="1.7070123"
     inkscape:window-x="72"
     inkscape:window-y="27"
     inkscape:window-maximized="1"
     inkscape:current-layer="svg6" />
  <path
     d="M 44.4771,47 C 22.3486,32.961 22.3486,14.0898 44.4771,0 L 48,1.22078 C 27.0826,14.5476 27.0826,32.4524 48,45.7792 Z M 33.2477,46.8983 C 16.7339,32.9102 16.7339,14.1407 33.2477,0.152597 L 37.211,1.11905 C 21.3578,14.4968 21.3578,32.5033 37.211,45.9318 Z M 22.1284,46.7457 c -10.899,-13.8864 -10.899,-32.5541 0,-46.491371 l 4.1835,0.712121 c -10.5688,13.47945 -10.5688,31.58765 0,45.06715 z M 11.0092,46.5931 c -5.39452,-13.7847 -5.39452,-32.3507 0,-46.135308 l 4.4036,0.356061 C 10.0183,14.395 10.0183,32.6558 15.4128,46.237 Z M 4.40367,46.3896 H 0 V 0.61039 h 4.40367 z"
     id="path2"
     inkscape:connector-curvature="0"
     style="fill:#0071bc" />
  <path
     d="m 62.3906,27.7812 c -0.1562,1.4271 -0.5677,2.7136 -1.2344,3.8594 -0.6666,1.1354 -1.6093,2.0313 -2.8281,2.6875 -1.2187,0.6563 -2.7448,0.9844 -4.5781,0.9844 -1.7812,0 -3.3385,-0.4323 -4.6719,-1.2969 -1.3333,-0.875 -2.3698,-2.1041 -3.1093,-3.6875 -0.7396,-1.5833 -1.1094,-3.4323 -1.1094,-5.5469 v -2.2968 c 0,-2.125 0.3698,-3.974 1.1094,-5.5469 0.75,-1.5833 1.8124,-2.8125 3.1874,-3.6875 1.375,-0.875 3,-1.3125 4.875,-1.3125 2.5834,0 4.5626,0.7083 5.9376,2.125 1.3854,1.4063 2.1927,3.2344 2.4218,5.4844 h -3.0312 c -0.2292,-1.5938 -0.7396,-2.849 -1.5313,-3.7657 -0.7812,-0.927 -2.0469,-1.3906 -3.7969,-1.3906 -2.0104,0 -3.5364,0.7396 -4.5781,2.2188 -1.0312,1.4791 -1.5469,3.4271 -1.5469,5.8437 v 2.3281 c 0,1.4896 0.2084,2.849 0.625,4.0782 0.4167,1.2187 1.0521,2.1927 1.9063,2.9218 0.8646,0.7292 1.9687,1.0938 3.3125,1.0938 1.2812,0 2.2969,-0.2031 3.0469,-0.6094 0.7604,-0.4062 1.3333,-0.9896 1.7187,-1.75 0.3959,-0.7604 0.6771,-1.6718 0.8438,-2.7344 z m 2.8906,-1.4062 c 0,-1.6354 0.3126,-3.099 0.9376,-4.3906 0.625,-1.2917 1.5104,-2.3125 2.6562,-3.0625 1.1458,-0.7604 2.5052,-1.1407 4.0781,-1.1407 1.5938,0 2.9688,0.3803 4.125,1.1407 1.1563,0.75 2.0417,1.7708 2.6563,3.0625 0.625,1.2916 0.9375,2.7552 0.9375,4.3906 v 0.3594 c 0,1.625 -0.3125,3.0885 -0.9375,4.3906 -0.6146,1.2917 -1.5,2.3125 -2.6563,3.0625 -1.1458,0.75 -2.5104,1.125 -4.0937,1.125 -1.5834,0 -2.9532,-0.375 -4.1094,-1.125 -1.1458,-0.75 -2.0312,-1.7708 -2.6562,-3.0625 -0.625,-1.3021 -0.9376,-2.7656 -0.9376,-4.3906 z m 2.9219,0.3594 c 0,1.1146 0.1771,2.1458 0.5313,3.0937 0.3541,0.9479 0.8802,1.7084 1.5781,2.2813 0.7083,0.5729 1.599,0.8594 2.6719,0.8594 1.0625,0 1.9427,-0.2865 2.6406,-0.8594 0.7083,-0.5729 1.2396,-1.3334 1.5938,-2.2813 C 77.5729,28.8802 77.75,27.849 77.75,26.7344 V 26.375 c 0,-1.1146 -0.1771,-2.1458 -0.5312,-3.0938 C 76.8646,22.3333 76.3333,21.5729 75.625,21 c -0.7083,-0.5833 -1.599,-0.875 -2.6719,-0.875 -1.0521,0 -1.9323,0.2917 -2.6406,0.875 -0.7083,0.5729 -1.2396,1.3333 -1.5937,2.2812 -0.3438,0.948 -0.5157,1.9792 -0.5157,3.0938 z M 87.2344,35 H 84.3125 V 18.0938 h 2.8437 l 0.0626,1.9218 c 0.427,-0.6875 0.9687,-1.2291 1.625,-1.625 0.6666,-0.4062 1.4583,-0.6094 2.375,-0.6094 0.1979,0 0.4322,0.0261 0.7031,0.0782 C 92.2031,17.901 92.3958,17.9479 92.5,18 v 2.6719 c -0.4479,-0.0834 -0.9219,-0.125 -1.4219,-0.125 -0.9791,0 -1.7864,0.2239 -2.4219,0.6719 C 88.0208,21.6562 87.5469,22.25 87.2344,23 Z M 105,30.5156 c 0,-0.4166 -0.094,-0.8021 -0.281,-1.1562 -0.177,-0.3646 -0.542,-0.6927 -1.094,-0.9844 -0.552,-0.3021 -1.385,-0.5677 -2.5,-0.7969 -1.875,-0.3958 -3.3594,-0.9583 -4.4531,-1.6875 -1.0938,-0.7291 -1.6407,-1.7864 -1.6407,-3.1718 0,-0.8959 0.2553,-1.7136 0.7657,-2.4532 0.5208,-0.75 1.25,-1.3489 2.1875,-1.7968 0.9479,-0.4584 2.0516,-0.6876 3.3126,-0.6876 1.354,0 2.51,0.2396 3.469,0.7188 0.968,0.4688 1.708,1.1042 2.218,1.9062 0.511,0.7917 0.766,1.6719 0.766,2.6407 h -2.922 c 0,-0.6979 -0.307,-1.3594 -0.922,-1.9844 -0.604,-0.625 -1.474,-0.9375 -2.609,-0.9375 -1.198,0 -2.0574,0.2656 -2.5782,0.7969 -0.5105,0.5208 -0.7657,1.0885 -0.7657,1.7031 0,0.4167 0.1042,0.7812 0.3125,1.0938 0.2084,0.302 0.5886,0.5729 1.1406,0.8124 0.5626,0.2396 1.3748,0.4792 2.4378,0.7188 2.073,0.4792 3.604,1.1042 4.594,1.875 0.989,0.7604 1.484,1.8229 1.484,3.1875 0,1.4792 -0.599,2.6823 -1.797,3.6094 -1.187,0.9271 -2.771,1.3906 -4.75,1.3906 -1.4896,0 -2.75,-0.2656 -3.7812,-0.7969 C 96.5625,33.9844 95.7812,33.3021 95.25,32.4688 94.7188,31.625 94.4531,30.7344 94.4531,29.7969 h 2.9219 c 0.0521,0.7916 0.2812,1.4219 0.6875,1.8906 0.4167,0.4583 0.9219,0.7865 1.5156,0.9844 0.6039,0.1979 1.2029,0.2969 1.7969,0.2969 1.177,0 2.073,-0.2344 2.687,-0.7032 0.626,-0.4687 0.938,-1.0521 0.938,-1.75 z m 13.719,4.7969 c -1.573,0 -2.943,-0.349 -4.11,-1.0469 -1.156,-0.7083 -2.057,-1.6771 -2.703,-2.9062 -0.635,-1.2292 -0.953,-2.6354 -0.953,-4.2188 v -0.6718 c 0,-1.8334 0.349,-3.3959 1.047,-4.6876 0.708,-1.302 1.625,-2.2916 2.75,-2.9687 1.135,-0.6875 2.333,-1.0313 3.594,-1.0313 1.625,0 2.948,0.3646 3.968,1.0938 1.032,0.7188 1.787,1.7031 2.266,2.9531 0.49,1.2396 0.734,2.6459 0.734,4.2188 v 1.2969 h -11.437 c 0.031,1.0416 0.245,1.9895 0.641,2.8437 0.406,0.8437 0.979,1.5208 1.718,2.0313 0.74,0.5 1.62,0.75 2.641,0.75 1.021,0 1.885,-0.2084 2.594,-0.625 0.708,-0.4167 1.328,-0.974 1.859,-1.6719 l 1.766,1.375 c -0.542,0.8333 -1.323,1.5885 -2.344,2.2656 -1.01,0.6667 -2.354,1 -4.031,1 z M 118.344,20.125 c -1.146,0 -2.115,0.4219 -2.906,1.2656 -0.782,0.8438 -1.271,2.0469 -1.469,3.6094 h 8.422 v -0.2188 c -0.042,-0.75 -0.193,-1.4791 -0.453,-2.1874 -0.261,-0.7188 -0.678,-1.3073 -1.25,-1.7657 -0.573,-0.4687 -1.355,-0.7031 -2.344,-0.7031 z m 17.453,0.1719 h -3.156 v 10.5156 c 0,0.875 0.187,1.4323 0.562,1.6719 0.386,0.2396 0.818,0.3594 1.297,0.3594 0.24,0 0.49,-0.0209 0.75,-0.0626 0.271,-0.0416 0.469,-0.0781 0.594,-0.1093 L 135.859,35 c -0.229,0.0729 -0.531,0.1406 -0.906,0.2031 -0.364,0.0729 -0.807,0.1094 -1.328,0.1094 -0.708,0 -1.359,-0.1406 -1.953,-0.4219 -0.594,-0.2812 -1.068,-0.75 -1.422,-1.4062 -0.354,-0.6667 -0.531,-1.5625 -0.531,-2.6875 v -10.5 h -3.078 v -2.2031 h 3.078 v -4.1094 h 2.922 v 4.1094 h 3.156 z"
     id="path4"
     inkscape:connector-curvature="0"
     style="fill:#0071bc" />
</svg>
