<svg id="Capa_1" enable-background="new 0 0 461.255 461.255" height="512" viewBox="0 0 461.255 461.255" width="512" xmlns="http://www.w3.org/2000/svg"><g><g fill="#575b6d"><path d="m425.43 124.627c-21.131-1.392-39.39 14.61-40.782 35.742s14.61 39.39 35.742 40.782c21.131 1.392 39.39-14.61 40.782-35.742.055-.83.082-1.661.083-2.493 0-25.341-16.031-38.289-35.825-38.289zm-4.067 65.36c-12.94-1.221-22.441-12.701-21.22-25.641 1.061-11.25 9.969-20.158 21.22-21.22 14.242 0 21.374 7.875 21.374 23.433.544 12.365-9.017 22.841-21.38 23.427z"/><path d="m.018 162.915c-.632 20.441 15.386 37.543 35.825 38.249 21.124-1.495 37.037-19.831 35.543-40.955-1.347-19.044-16.499-34.195-35.543-35.543-19.794-.039-35.825 12.909-35.825 38.249zm18.5 3.639c0-15.541 7.155-23.433 21.374-23.433 12.94 1.221 22.441 12.701 21.22 25.641-1.061 11.25-9.969 20.158-21.22 21.22-12.361-.59-21.918-11.065-21.374-23.428z"/><path d="m408.471 419.554c.039 4.171-2.208 8.028-5.855 10.052-6.398 3.547-13.8 4.85-21.026 3.701-6.465-1.104-11.936-5.393-14.551-11.407-1.907-4.307-3.393-8.789-4.438-13.381-.467-1.992-1.349-3.862-2.587-5.49-8.758-12.273-34.221-14.985-34.221-14.985l39.34-18.253c7.043 3.895 12.674 9.918 16.087 17.206 4.12 8.259 6.452 17.294 6.845 26.515l5.366-3.33c4.342-2.635 9.98-1.48 12.937 2.649 1.375 1.972 2.109 4.319 2.103 6.723z"/><path d="m135.43 388.049s-25.346 2.711-34.222 14.923c-1.228 1.657-2.108 3.546-2.587 5.552-1.045 4.593-2.531 9.074-4.438 13.382-2.615 6.014-8.087 10.304-14.551 11.407-7.225 1.149-14.627-.154-21.026-3.701-3.647-2.023-5.894-5.881-5.855-10.052-.008-2.403.725-4.75 2.098-6.722 2.957-4.129 8.595-5.284 12.937-2.649l5.366 3.33c.356-9.247 2.69-18.309 6.845-26.577 3.435-7.276 9.063-13.293 16.093-17.206z"/></g><path d="m96.09 369.734 39.34 18.314s-25.346 2.711-34.222 14.923c-7.43-4.85-14.517-10.207-21.211-16.031 3.436-7.275 9.063-13.292 16.093-17.206z" fill="#414451"/><path d="m381.219 386.997c-6.725 5.788-13.81 11.144-21.211 16.036-8.758-12.273-34.221-14.985-34.221-14.985l39.34-18.253c7.043 3.894 12.676 9.915 16.092 17.202z" fill="#414451"/><path d="m437.574 242.382c0 103.103-92.697 186.745-206.938 186.745-30.135.089-59.979-5.899-87.747-17.606-70.479-29.755-119.247-94.328-119.247-169.139.019-29.079 7.453-57.673 21.599-83.079 33.919-61.423 104.173-103.609 185.395-103.609 3.712 0 7.481.112 11.137.281 76.442 3.656 141.858 44.717 174.201 103.328 14.148 25.407 21.582 54 21.6 83.079z" fill="#4d5160"/><path d="m360.683 225.002c0 103.103-92.641 186.745-206.938 186.745-3.656 0-7.256-.112-10.856-.225-70.479-29.756-119.247-94.329-119.247-169.14.019-29.079 7.453-57.673 21.599-83.079 33.919-61.423 104.173-103.609 185.395-103.609 3.712 0 7.481.112 11.137.281 41.112 16.993 75.377 47.22 97.366 85.891 14.097 25.444 21.509 54.048 21.544 83.136z" fill="#575b6d"/><path d="m415.992 159.281c-38.226 25.587-105.483 41.928-185.355 41.928s-147.185-16.34-185.417-41.933c33.911-61.396 104.205-103.582 185.416-103.582s151.444 42.186 185.356 103.587z" fill="#414451"/><path d="m437.574 108.179c0 44.594-92.68 80.705-206.938 80.705s-206.994-36.111-206.994-80.705 92.675-80.643 206.994-80.643 206.938 36.112 206.938 80.643z" fill="#575b6d"/><path d="m230.636 162.679c-112.429 0-181.238-35.285-181.238-54.499s68.809-54.437 181.238-54.437 181.176 35.245 181.176 54.437-68.786 54.499-181.176 54.499z" fill="#2cbfae"/><path d="m257.585 110.818c-.028 14.893-12.123 26.943-27.016 26.915-13.969-.026-25.605-10.715-26.814-24.631 6.493 13.389 22.61 18.98 35.999 12.487 9.296-4.508 15.196-13.934 15.187-24.266 0-.804-.062-1.541-.124-2.346 1.833 3.677 2.781 7.732 2.768 11.841z" fill="#16a897"/><path d="m254.93 101.317c.012 14.88-12.04 26.953-26.92 26.966-10.331.009-19.758-5.891-24.266-15.187-.062-.742-.124-1.479-.124-2.284-.031-14.88 12.006-26.968 26.886-26.999 10.344-.022 19.787 5.88 24.3 15.187.062.776.124 1.513.124 2.317z" fill="none"/><path d="m254.93 101.317c.012 14.88-12.04 26.953-26.92 26.966-10.331.009-19.758-5.891-24.266-15.187-.062-.742-.124-1.479-.124-2.284-.031-14.88 12.006-26.968 26.886-26.999 10.344-.022 19.787 5.88 24.3 15.187.062.776.124 1.513.124 2.317z" fill="#30b7a4"/><ellipse cx="228.39" cy="102.346" fill="#eeefee" opacity=".5" rx="14.653" ry="9.247" transform="matrix(.972 -.237 .237 .972 -17.745 57.02)"/><path d="m194.547 60.16c-.008 17.99-14.599 32.567-32.589 32.558-16.91-.008-31.001-12.954-32.44-29.802 7.85 16.169 27.322 22.913 43.491 15.063 11.216-5.445 18.336-16.82 18.331-29.289 0-.967-.073-1.862-.146-2.812 2.215 4.435 3.363 9.326 3.353 14.282z" fill="#16a897"/><path d="m191.341 48.691c.006 17.974-14.56 32.55-32.534 32.557-12.468.004-23.843-7.115-29.289-18.331-.073-.894-.152-1.789-.152-2.756-.036-17.977 14.508-32.58 32.485-32.617 12.481-.025 23.878 7.089 29.337 18.313.075.972.153 1.867.153 2.834z" fill="none"/><path d="m191.341 48.691c.006 17.974-14.56 32.55-32.534 32.557-12.468.004-23.843-7.115-29.289-18.331-.073-.894-.152-1.789-.152-2.756-.036-17.977 14.508-32.58 32.485-32.617 12.481-.025 23.878 7.089 29.337 18.313.075.972.153 1.867.153 2.834z" fill="#30b7a4"/><ellipse cx="159.28" cy="49.94" fill="#eeefee" opacity=".5" rx="17.696" ry="11.171" transform="matrix(.972 -.237 .237 .972 -7.297 39.156)"/><path d="m127.432 113.495c-.046 6.598-5.432 11.91-12.03 11.864-6.142-.043-11.25-4.735-11.814-10.851 2.879 5.93 10.02 8.404 15.95 5.526 4.115-1.997 6.727-6.171 6.724-10.746 0-.354 0-.681-.056-1.041.812 1.63 1.232 3.427 1.226 5.248z" fill="#16a897"/><path d="m126.256 109.288c.004 6.592-5.336 11.939-11.928 11.944-4.574.003-8.748-2.609-10.746-6.724 0-.326-.056-.658-.056-1.012-.017-6.592 5.313-11.95 11.905-11.966 4.583-.012 8.767 2.601 10.768 6.724.029.353.057.679.057 1.034z" fill="none"/><path d="m126.256 109.288c.004 6.592-5.336 11.939-11.928 11.944-4.574.003-8.748-2.609-10.746-6.724 0-.326-.056-.658-.056-1.012-.017-6.592 5.313-11.95 11.905-11.966 4.583-.012 8.767 2.601 10.768 6.724.029.353.057.679.057 1.034z" fill="#30b7a4"/><ellipse cx="114.493" cy="109.752" fill="#eeefee" opacity=".5" rx="6.491" ry="4.095" transform="matrix(.972 -.237 .237 .972 -22.742 30.249)"/><path d="m300.609 61.589c-.046 6.598-5.432 11.91-12.03 11.864-6.142-.043-11.25-4.735-11.814-10.851 2.879 5.93 10.02 8.404 15.95 5.526 4.115-1.998 6.727-6.171 6.724-10.746 0-.354 0-.681-.056-1.041.813 1.63 1.233 3.427 1.226 5.248z" fill="#16a897"/><path d="m299.439 57.382c.004 6.592-5.336 11.939-11.928 11.944-4.574.003-8.748-2.609-10.746-6.724 0-.326-.056-.658-.056-1.012-.017-6.592 5.314-11.949 11.905-11.966 4.583-.012 8.767 2.601 10.768 6.724.029.353.057.679.057 1.034z" fill="none"/><path d="m299.439 57.382c.004 6.592-5.336 11.939-11.928 11.944-4.574.003-8.748-2.609-10.746-6.724 0-.326-.056-.658-.056-1.012-.017-6.592 5.314-11.949 11.905-11.966 4.583-.012 8.767 2.601 10.768 6.724.029.353.057.679.057 1.034z" fill="#30b7a4"/><ellipse cx="287.678" cy="57.843" fill="#eeefee" opacity=".5" rx="6.491" ry="4.095" transform="matrix(.972 -.237 .237 .972 -5.514 69.799)"/><path d="m356.481 107.088c-.022 15.035-12.228 27.207-27.263 27.185-14.111-.02-25.868-10.82-27.084-24.879 6.545 13.523 22.812 19.18 36.335 12.635 9.401-4.55 15.368-14.081 15.352-24.526 0-.81-.062-1.558-.124-2.368 1.847 3.713 2.8 7.806 2.784 11.953z" fill="#16a897"/><path d="m353.82 97.504c.003 15.023-12.173 27.204-27.196 27.208-10.418.002-19.922-5.946-24.474-15.317-.062-.748-.124-1.496-.124-2.306-.038-15.023 12.11-27.232 27.133-27.27 10.44-.026 19.975 5.926 24.536 15.317.047.809.125 1.558.125 2.368z" fill="none"/><path d="m353.82 97.504c.003 15.023-12.173 27.204-27.196 27.208-10.418.002-19.922-5.946-24.474-15.317-.062-.748-.124-1.496-.124-2.306-.038-15.023 12.11-27.232 27.133-27.27 10.44-.026 19.975 5.926 24.536 15.317.047.809.125 1.558.125 2.368z" fill="#30b7a4"/><ellipse cx="327.008" cy="98.548" fill="#eeefee" opacity=".5" rx="14.793" ry="9.332" transform="matrix(.972 -.237 .237 .972 -14.038 80.276)"/></g></svg>