<?xml version="1.0" encoding="UTF-8" standalone="no"?>
<!-- Created with Inkscape (http://www.inkscape.org/) -->

<svg
   xmlns:dc="http://purl.org/dc/elements/1.1/"
   xmlns:cc="http://creativecommons.org/ns#"
   xmlns:rdf="http://www.w3.org/1999/02/22-rdf-syntax-ns#"
   xmlns:svg="http://www.w3.org/2000/svg"
   xmlns="http://www.w3.org/2000/svg"
   xmlns:xlink="http://www.w3.org/1999/xlink"
   xmlns:sodipodi="http://sodipodi.sourceforge.net/DTD/sodipodi-0.dtd"
   xmlns:inkscape="http://www.inkscape.org/namespaces/inkscape"
   width="64.423195mm"
   height="19.471523mm"
   viewBox="0 0 64.423195 19.471523"
   version="1.1"
   id="svg173"
   inkscape:version="0.92.4 5da689c313, 2019-01-14"
   sodipodi:docname="prompsit_logo_all.svg">
  <defs
     id="defs167">
    <clipPath
       id="SVGID_20_">
      <use
         height="908.92603"
         width="740.31598"
         y="0"
         x="0"
         style="overflow:visible"
         id="use535"
         overflow="visible"
         xlink:href="#SVGID_19_" />
    </clipPath>
    <clipPath
       id="SVGID_18_">
      <use
         height="908.92603"
         width="740.31598"
         y="0"
         x="0"
         style="overflow:visible"
         id="use511"
         overflow="visible"
         xlink:href="#SVGID_17_" />
    </clipPath>
    <clipPath
       id="clipPath142">
      <use
         height="908.92603"
         width="740.31598"
         y="0"
         x="0"
         style="overflow:visible"
         id="use140"
         overflow="visible"
         xlink:href="#SVGID_17_" />
    </clipPath>
    <path
       inkscape:connector-curvature="0"
       d="m 614.175,54.419 c 8.701,0 15.755,7.054 15.755,15.755 0,2.908 -0.788,5.633 -2.162,7.972 l -0.144,0.243 -3.791,-2.973 0.095,-0.182 c 0.788,-1.515 1.232,-3.235 1.232,-5.061 0,-6.067 -4.918,-10.986 -10.985,-10.986 -6.067,0 -10.986,4.918 -10.986,10.986 0,6.067 4.919,10.985 10.986,10.985 2.083,0 4.03,-0.579 5.688,-1.585 l 0.219,-0.133 2.327,4.169 -0.207,0.123 c -2.351,1.395 -5.096,2.195 -8.027,2.195 -8.701,0 -15.755,-7.053 -15.755,-15.754 0,-8.7 7.054,-15.754 15.755,-15.754 z"
       id="SVGID_17_" />
    <path
       inkscape:connector-curvature="0"
       d="m 607.062,66.462 0.128,-0.242 3.325,2.196 -0.084,0.19 c -0.223,0.513 -0.347,1.078 -0.347,1.676 0,2.323 1.884,4.207 4.207,4.207 2.323,0 4.207,-1.883 4.207,-4.207 0,-2.324 -1.884,-4.208 -4.207,-4.208 -0.721,0 -1.397,0.181 -1.988,0.5 l -0.23,0.123 -1.705,-3.593 0.215,-0.109 c 1.114,-0.568 2.376,-0.888 3.71,-0.888 4.515,0 8.175,3.66 8.175,8.175 0,4.515 -3.66,8.175 -8.175,8.175 -4.516,0 -8.176,-3.66 -8.176,-8.175 -10e-4,-1.378 0.341,-2.679 0.945,-3.82 z"
       id="SVGID_19_" />
  </defs>
  <sodipodi:namedview
     id="base"
     pagecolor="#ffffff"
     bordercolor="#666666"
     borderopacity="1.0"
     inkscape:pageopacity="0.0"
     inkscape:pageshadow="2"
     inkscape:zoom="2.8"
     inkscape:cx="140.56334"
     inkscape:cy="38.034328"
     inkscape:document-units="mm"
     inkscape:current-layer="layer1"
     showgrid="false"
     fit-margin-top="0"
     fit-margin-left="0"
     fit-margin-right="0"
     fit-margin-bottom="0"
     inkscape:window-width="1920"
     inkscape:window-height="1047"
     inkscape:window-x="0"
     inkscape:window-y="115"
     inkscape:window-maximized="1" />
  <metadata
     id="metadata170">
    <rdf:RDF>
      <cc:Work
         rdf:about="">
        <dc:format>image/svg+xml</dc:format>
        <dc:type
           rdf:resource="http://purl.org/dc/dcmitype/StillImage" />
        <dc:title></dc:title>
      </cc:Work>
    </rdf:RDF>
  </metadata>
  <g
     inkscape:label="Layer 1"
     inkscape:groupmode="layer"
     id="layer1"
     transform="translate(-14.657453,-9.8297144)">
    <g
       id="g505"
       transform="matrix(0.61798663,0,0,0.61798663,-345.51725,-23.8005)">
      <defs
         id="defs507">
        <path
           inkscape:connector-curvature="0"
           d="m 614.175,54.419 c 8.701,0 15.755,7.054 15.755,15.755 0,2.908 -0.788,5.633 -2.162,7.972 l -0.144,0.243 -3.791,-2.973 0.095,-0.182 c 0.788,-1.515 1.232,-3.235 1.232,-5.061 0,-6.067 -4.918,-10.986 -10.985,-10.986 -6.067,0 -10.986,4.918 -10.986,10.986 0,6.067 4.919,10.985 10.986,10.985 2.083,0 4.03,-0.579 5.688,-1.585 l 0.219,-0.133 2.327,4.169 -0.207,0.123 c -2.351,1.395 -5.096,2.195 -8.027,2.195 -8.701,0 -15.755,-7.053 -15.755,-15.754 0,-8.7 7.054,-15.754 15.755,-15.754 z"
           id="path212" />
      </defs>
      <clipPath
         id="clipPath148">
        <use
           height="908.92603"
           width="740.31598"
           y="0"
           x="0"
           style="overflow:visible"
           id="use146"
           overflow="visible"
           xlink:href="#SVGID_17_" />
      </clipPath>
      <path
         inkscape:connector-curvature="0"
         style="fill:#fbb462"
         id="path513"
         d="m 614.186,54.412 c 8.701,0 15.755,7.054 15.755,15.755 0,2.909 -0.788,5.634 -2.163,7.973 l -0.144,0.243 -3.79,-2.973 0.095,-0.182 c 0.787,-1.515 1.232,-3.236 1.232,-5.062 0,-6.067 -4.919,-10.986 -10.986,-10.986 -6.066,0 -10.985,4.918 -10.985,10.986 0,6.068 4.918,10.986 10.985,10.986 2.083,0 4.03,-0.58 5.689,-1.586 l 0.219,-0.132 2.326,4.17 -0.206,0.123 c -2.352,1.395 -5.097,2.195 -8.028,2.195 -8.701,0 -15.754,-7.053 -15.754,-15.755 0,-8.702 7.052,-15.755 15.755,-15.755 z"
         clip-path="url(#SVGID_18_)" />
      <path
         inkscape:connector-curvature="0"
         style="fill:#f8981d"
         id="path515"
         d="m 615.479,52.294 c 10.716,0 19.402,8.687 19.402,19.402 0,3.582 -0.971,6.938 -2.664,9.818 l -0.176,0.299 -4.668,-3.661 0.116,-0.224 c 0.971,-1.865 1.519,-3.985 1.519,-6.233 0,-7.472 -6.057,-13.528 -13.528,-13.528 -7.473,0 -13.529,6.056 -13.529,13.528 0,7.472 6.057,13.529 13.528,13.529 2.565,0 4.963,-0.714 7.006,-1.953 l 0.27,-0.163 2.865,5.135 -0.255,0.15 c -2.896,1.719 -6.275,2.704 -9.886,2.704 -10.715,0 -19.401,-8.687 -19.401,-19.402 0,-10.715 8.686,-19.401 19.401,-19.401 z"
         clip-path="url(#SVGID_18_)" />
    </g>
    <path
       inkscape:connector-curvature="0"
       style="fill:#23230b;stroke-width:0.26458332"
       id="path517"
       d="m 16.058709,22.267931 v 4.14051 h -1.28974 v -10.77645 h 1.28974 v 1.18468 c 0.26944,-0.464726 0.6081,-0.808944 1.0172,-1.031419 0.41344,-0.22742 0.90659,-0.341747 1.47823,-0.341747 0.94799,0 1.71677,0.376354 2.30694,1.129062 0.59451,0.752707 0.89176,1.742722 0.89176,2.969425 0,1.226703 -0.29725,2.216718 -0.89176,2.969426 -0.59017,0.752707 -1.35895,1.129679 -2.30694,1.129679 -0.57164,0 -1.06479,-0.111855 -1.47823,-0.334948 -0.4091,-0.22742 -0.74838,-0.57411 -1.0172,-1.038218 z m 4.36298,-2.725939 c 0,-0.943047 -0.19466,-1.682159 -0.58523,-2.216718 -0.38562,-0.538884 -0.91771,-0.808944 -1.59626,-0.808944 -0.67855,0 -1.21311,0.27006 -1.60367,0.808944 -0.38563,0.534559 -0.57844,1.273671 -0.57844,2.216718 0,0.943665 0.19281,1.684632 0.57844,2.223516 0.39056,0.534558 0.92512,0.801528 1.60367,0.801528 0.67855,0 1.21064,-0.267588 1.59626,-0.801528 0.39057,-0.538884 0.58523,-1.279851 0.58523,-2.223516 z m 7.9813,-2.711107 c -0.14399,-0.08405 -0.30158,-0.143991 -0.47399,-0.181688 -0.16748,-0.04141 -0.35349,-0.06242 -0.55743,-0.06242 -0.7249,0 -1.28232,0.236689 -1.67289,0.710684 -0.38562,0.46967 -0.57905,1.145748 -0.57905,2.028851 v 4.112083 h -1.28974 v -7.806407 h 1.28974 v 1.21249 c 0.27006,-0.473996 0.62046,-0.824395 1.05243,-1.052432 0.43197,-0.231745 0.95726,-0.348544 1.57525,-0.348544 0.089,0 0.18663,0.0068 0.29354,0.02101 0.10691,0.0093 0.22495,0.02534 0.35534,0.04882 l 0.007,1.317547 v 0 z" />
    <path
       inkscape:connector-curvature="0"
       style="fill:none;stroke:#23230b;stroke-width:0.22303139"
       id="path519"
       d="m 16.058709,22.267931 v 4.14051 h -1.28974 v -10.77645 h 1.28974 v 1.18468 c 0.26944,-0.464726 0.6081,-0.808944 1.0172,-1.031419 0.41344,-0.22742 0.90659,-0.341747 1.47823,-0.341747 0.94799,0 1.71677,0.376354 2.30694,1.129062 0.59451,0.752707 0.89176,1.742722 0.89176,2.969425 0,1.226703 -0.29725,2.216718 -0.89176,2.969426 -0.59017,0.752707 -1.35895,1.129679 -2.30694,1.129679 -0.57164,0 -1.06479,-0.111855 -1.47823,-0.334948 -0.4091,-0.22742 -0.74838,-0.57411 -1.0172,-1.038218 z m 4.36298,-2.725939 c 0,-0.943047 -0.19466,-1.682159 -0.58523,-2.216718 -0.38562,-0.538884 -0.91771,-0.808944 -1.59626,-0.808944 -0.67855,0 -1.21311,0.27006 -1.60367,0.808944 -0.38563,0.534559 -0.57844,1.273671 -0.57844,2.216718 0,0.943665 0.19281,1.684632 0.57844,2.223516 0.39056,0.534558 0.92512,0.801528 1.60367,0.801528 0.67855,0 1.21064,-0.267588 1.59626,-0.801528 0.39057,-0.538884 0.58523,-1.279851 0.58523,-2.223516 z m 7.9813,-2.711107 c -0.14399,-0.08405 -0.30158,-0.143991 -0.47399,-0.181688 -0.16748,-0.04141 -0.35349,-0.06242 -0.55743,-0.06242 -0.7249,0 -1.28232,0.236689 -1.67289,0.710684 -0.38562,0.46967 -0.57905,1.145748 -0.57905,2.028851 v 4.112083 h -1.28974 v -7.806407 h 1.28974 v 1.21249 c 0.27006,-0.473996 0.62046,-0.824395 1.05243,-1.052432 0.43197,-0.231745 0.95726,-0.348544 1.57525,-0.348544 0.089,0 0.18663,0.0068 0.29354,0.02101 0.10691,0.0093 0.22495,0.02534 0.35534,0.04882 l 0.007,1.317547 v 0 z" />
    <path
       inkscape:connector-curvature="0"
       style="fill:#23230b;stroke-width:0.26458332"
       id="path521"
       d="m 46.757809,17.129991 c 0.32074,-0.575964 0.70389,-1.001139 1.15008,-1.275525 0.44618,-0.273768 0.97085,-0.411579 1.57524,-0.411579 0.81327,0 1.44053,0.28551 1.88239,0.857765 0.44186,0.566694 0.66186,1.375639 0.66186,2.425598 v 4.712148 h -1.28974 v -4.670125 c 0,-0.748382 -0.13225,-1.303952 -0.39736,-1.666092 -0.26512,-0.362758 -0.66928,-0.543828 -1.21311,-0.543828 -0.66433,0 -1.18962,0.220621 -1.57525,0.662481 -0.38562,0.441861 -0.57905,1.043162 -0.57905,1.805139 v 4.412425 h -1.28974 v -4.670125 c 0,-0.753326 -0.13225,-1.308278 -0.39736,-1.666092 -0.26512,-0.362758 -0.67361,-0.543828 -1.22671,-0.543828 -0.65568,0 -1.17541,0.223093 -1.56103,0.669279 -0.38563,0.441243 -0.57905,1.041308 -0.57905,1.798341 v 4.412425 h -1.28974 v -7.806407 h 1.28974 v 1.21249 c 0.29292,-0.478322 0.64394,-0.83181 1.05243,-1.059229 0.40911,-0.22742 0.89484,-0.341747 1.45659,-0.341747 0.56731,0 1.04811,0.143991 1.443,0.431973 0.40169,0.287981 0.69585,0.706358 0.88681,1.254513 z m 9.07513,5.13794 v 4.14051 h -1.28912 v -10.77645 h 1.28912 v 1.18468 c 0.27006,-0.464726 0.60934,-0.808944 1.01783,-1.031419 0.41405,-0.22742 0.90597,-0.341747 1.47761,-0.341747 0.94799,0 1.71738,0.376354 2.30756,1.129062 0.59512,0.752707 0.89175,1.742722 0.89175,2.969425 0,1.226703 -0.29663,2.216718 -0.89175,2.969426 -0.59018,0.752707 -1.35957,1.129679 -2.30756,1.129679 -0.57164,0 -1.06356,-0.111855 -1.47761,-0.334948 -0.40787,-0.22742 -0.74777,-0.57411 -1.01783,-1.038218 z m 4.36423,-2.725939 c 0,-0.943047 -0.19467,-1.682159 -0.58524,-2.216718 -0.38562,-0.538884 -0.91771,-0.808944 -1.59626,-0.808944 -0.67855,0 -1.2131,0.27006 -1.60367,0.808944 -0.38563,0.534559 -0.57906,1.273671 -0.57906,2.216718 0,0.943665 0.19282,1.684632 0.57906,2.223516 0.39057,0.534558 0.92512,0.801528 1.60367,0.801528 0.67855,0 1.21064,-0.267588 1.59626,-0.801528 0.38995,-0.538884 0.58524,-1.279851 0.58524,-2.223516 z m 8.43428,-3.68011 v 1.21249 c -0.36276,-0.185396 -0.73911,-0.325061 -1.12906,-0.418377 -0.39057,-0.0927 -0.79473,-0.139665 -1.21311,-0.139665 -0.63653,0 -1.11547,0.09764 -1.4362,0.292925 -0.31579,0.195284 -0.474,0.487592 -0.474,0.878159 0,0.297252 0.11433,0.532087 0.34175,0.704505 0.22803,0.167474 0.68535,0.327533 1.37378,0.480794 l 0.43877,0.09702 c 0.91153,0.195284 1.55733,0.472142 1.93801,0.829956 0.38624,0.35287 0.57905,0.847877 0.57905,1.485021 0,0.724898 -0.28798,1.299008 -0.86394,1.721711 -0.57226,0.423321 -1.35957,0.634672 -2.36318,0.634672 -0.41838,0 -0.85468,-0.04202 -1.31013,-0.125451 -0.45052,-0.0791 -0.9276,-0.200228 -1.42879,-0.36214 v -1.324963 c 0.47399,0.246576 0.94058,0.43259 1.40098,0.557423 0.4604,0.121126 0.91585,0.18107 1.36636,0.18107 0.60501,0 1.06912,-0.101967 1.39418,-0.306521 0.32568,-0.208879 0.48821,-0.501805 0.48821,-0.878159 0,-0.348544 -0.11865,-0.615514 -0.35534,-0.801528 -0.23237,-0.185397 -0.74591,-0.364613 -1.54064,-0.536413 l -0.44619,-0.10444 c -0.79473,-0.167474 -1.36884,-0.422702 -1.72171,-0.766921 -0.35287,-0.348544 -0.52961,-0.824394 -0.52961,-1.428785 0,-0.734168 0.26079,-1.300862 0.78113,-1.700699 0.52097,-0.399219 1.25946,-0.599447 2.21672,-0.599447 0.474,0 0.91956,0.03522 1.33856,0.10444 0.41529,0.06921 0.80153,0.173654 1.1544,0.313319 z m 2.46762,-0.229891 h 1.28232 v 7.806407 h -1.28232 z m 0,-3.039258 h 1.28232 v 1.624069 h -1.28232 z m 5.22755,0.82254 v 2.216718 h 2.64189 v 0.996812 h -2.64189 v 4.238152 c 0,0.636527 0.0865,1.045634 0.25832,1.226704 0.17674,0.18107 0.53208,0.271914 1.06664,0.271914 h 1.31755 v 1.073443 h -1.31755 c -0.99001,0 -1.67289,-0.183543 -2.04924,-0.550626 -0.37636,-0.372028 -0.56423,-1.045634 -0.56423,-2.021435 v -4.23877 h -0.94119 v -0.996812 h 0.94119 v -2.216718 h 1.28851 v 6.08e-4 z" />
    <path
       inkscape:connector-curvature="0"
       style="fill:none;stroke:#23230b;stroke-width:0.22303139"
       id="path523"
       d="m 46.757809,17.129991 c 0.32074,-0.575964 0.70389,-1.001139 1.15008,-1.275525 0.44618,-0.273768 0.97085,-0.411579 1.57524,-0.411579 0.81327,0 1.44053,0.28551 1.88239,0.857765 0.44186,0.566694 0.66186,1.375639 0.66186,2.425598 v 4.712148 h -1.28974 v -4.670125 c 0,-0.748382 -0.13225,-1.303952 -0.39736,-1.666092 -0.26512,-0.362758 -0.66928,-0.543828 -1.21311,-0.543828 -0.66433,0 -1.18962,0.220621 -1.57525,0.662481 -0.38562,0.441861 -0.57905,1.043162 -0.57905,1.805139 v 4.412425 h -1.28974 v -4.670125 c 0,-0.753326 -0.13225,-1.308278 -0.39736,-1.666092 -0.26512,-0.362758 -0.67361,-0.543828 -1.22671,-0.543828 -0.65568,0 -1.17541,0.223093 -1.56103,0.669279 -0.38563,0.441243 -0.57905,1.041308 -0.57905,1.798341 v 4.412425 h -1.28974 v -7.806407 h 1.28974 v 1.21249 c 0.29292,-0.478322 0.64394,-0.83181 1.05243,-1.059229 0.40911,-0.22742 0.89484,-0.341747 1.45659,-0.341747 0.56731,0 1.04811,0.143991 1.443,0.431973 0.40169,0.287981 0.69585,0.706358 0.88681,1.254513 z m 9.07513,5.13794 v 4.14051 h -1.28912 v -10.77645 h 1.28912 v 1.18468 c 0.27006,-0.464726 0.60934,-0.808944 1.01783,-1.031419 0.41405,-0.22742 0.90597,-0.341747 1.47761,-0.341747 0.94799,0 1.71738,0.376354 2.30756,1.129062 0.59512,0.752707 0.89175,1.742722 0.89175,2.969425 0,1.226703 -0.29663,2.216718 -0.89175,2.969426 -0.59018,0.752707 -1.35957,1.129679 -2.30756,1.129679 -0.57164,0 -1.06356,-0.111855 -1.47761,-0.334948 -0.40787,-0.22742 -0.74777,-0.57411 -1.01783,-1.038218 z m 4.36423,-2.725939 c 0,-0.943047 -0.19467,-1.682159 -0.58524,-2.216718 -0.38562,-0.538884 -0.91771,-0.808944 -1.59626,-0.808944 -0.67855,0 -1.2131,0.27006 -1.60367,0.808944 -0.38563,0.534559 -0.57906,1.273671 -0.57906,2.216718 0,0.943665 0.19282,1.684632 0.57906,2.223516 0.39057,0.534558 0.92512,0.801528 1.60367,0.801528 0.67855,0 1.21064,-0.267588 1.59626,-0.801528 0.38995,-0.538884 0.58524,-1.279851 0.58524,-2.223516 z m 8.43428,-3.68011 v 1.21249 c -0.36276,-0.185396 -0.73911,-0.325061 -1.12906,-0.418377 -0.39057,-0.0927 -0.79473,-0.139665 -1.21311,-0.139665 -0.63653,0 -1.11547,0.09764 -1.4362,0.292925 -0.31579,0.195284 -0.474,0.487592 -0.474,0.878159 0,0.297252 0.11433,0.532087 0.34175,0.704505 0.22803,0.167474 0.68535,0.327533 1.37378,0.480794 l 0.43877,0.09702 c 0.91153,0.195284 1.55733,0.472142 1.93801,0.829956 0.38624,0.35287 0.57905,0.847877 0.57905,1.485021 0,0.724898 -0.28798,1.299008 -0.86394,1.721711 -0.57226,0.423321 -1.35957,0.634672 -2.36318,0.634672 -0.41838,0 -0.85468,-0.04202 -1.31013,-0.125451 -0.45052,-0.0791 -0.9276,-0.200228 -1.42879,-0.36214 v -1.324963 c 0.47399,0.246576 0.94058,0.43259 1.40098,0.557423 0.4604,0.121126 0.91585,0.18107 1.36636,0.18107 0.60501,0 1.06912,-0.101967 1.39418,-0.306521 0.32568,-0.208879 0.48821,-0.501805 0.48821,-0.878159 0,-0.348544 -0.11865,-0.615514 -0.35534,-0.801528 -0.23237,-0.185397 -0.74591,-0.364613 -1.54064,-0.536413 l -0.44619,-0.10444 c -0.79473,-0.167474 -1.36884,-0.422702 -1.72171,-0.766921 -0.35287,-0.348544 -0.52961,-0.824394 -0.52961,-1.428785 0,-0.734168 0.26079,-1.300862 0.78113,-1.700699 0.52097,-0.399219 1.25946,-0.599447 2.21672,-0.599447 0.474,0 0.91956,0.03522 1.33856,0.10444 0.41529,0.06921 0.80153,0.173654 1.1544,0.313319 z m 2.46762,-0.229891 h 1.28232 v 7.806407 h -1.28232 z m 0,-3.039258 h 1.28232 v 1.624069 h -1.28232 z m 5.22755,0.82254 v 2.216718 h 2.64189 v 0.996812 h -2.64189 v 4.238152 c 0,0.636527 0.0865,1.045634 0.25832,1.226704 0.17674,0.18107 0.53208,0.271914 1.06664,0.271914 h 1.31755 v 1.073443 h -1.31755 c -0.99001,0 -1.67289,-0.183543 -2.04924,-0.550626 -0.37636,-0.372028 -0.56423,-1.045634 -0.56423,-2.021435 v -4.23877 h -0.94119 v -0.996812 h 0.94119 v -2.216718 h 1.28851 v 6.08e-4 z" />
    <path
       inkscape:connector-curvature="0"
       style="fill:#8e897c;stroke-width:0.26458332"
       id="path525"
       d="m 29.648229,17.25606 0.0785,-0.148317 2.03936,1.347211 -0.0513,0.117417 c -0.13657,0.313937 -0.21259,0.661246 -0.21259,1.027712 0,1.425695 1.15564,2.580712 2.58133,2.580712 1.42508,0 2.58072,-1.155635 2.58072,-2.580712 0,-1.425077 -1.15564,-2.580712 -2.58072,-2.580712 -0.44248,0 -0.85776,0.11062 -1.22052,0.305903 l -0.14152,0.07601 -1.04563,-2.204358 0.13225,-0.06674 c 0.68287,-0.348545 1.45659,-0.545064 2.27542,-0.545064 2.7692,0 5.01558,2.245145 5.01558,5.015579 0,2.769816 -2.24576,5.014961 -5.01558,5.014961 -2.76919,0 -5.01496,-2.245145 -5.01496,-5.014961 -6.1e-4,-0.846643 0.2095,-1.645081 0.57967,-2.344642 z" />
    <path
       inkscape:connector-curvature="0"
       style="fill:#8e897c;stroke-width:0.26458332"
       id="path527"
       d="m 29.638959,17.272127 0.0791,-0.149552 2.05481,1.357098 -0.0519,0.117418 c -0.13781,0.317027 -0.21444,0.666189 -0.21444,1.035745 0,1.435583 1.16429,2.59987 2.59987,2.59987 1.43558,0 2.59987,-1.163669 2.59987,-2.59987 0,-1.436201 -1.16429,-2.600487 -2.59987,-2.600487 -0.44557,0 -0.86333,0.111855 -1.22856,0.308993 l -0.14214,0.07601 -1.05366,-2.220426 0.13286,-0.06736 c 0.68844,-0.351017 1.46834,-0.548772 2.29273,-0.548772 2.79021,0 5.05205,2.261831 5.05205,5.05204 0,2.79021 -2.26184,5.052041 -5.05205,5.052041 -2.79082,0 -5.05265,-2.261831 -5.05265,-5.052041 -6.1e-4,-0.851585 0.21073,-1.655586 0.58399,-2.360709 z" />
    <g
       id="g529"
       transform="matrix(0.61798663,0,0,0.61798663,-345.51725,-23.8005)">
      <defs
         id="defs531">
        <path
           inkscape:connector-curvature="0"
           d="m 607.062,66.462 0.128,-0.242 3.325,2.196 -0.084,0.19 c -0.223,0.513 -0.347,1.078 -0.347,1.676 0,2.323 1.884,4.207 4.207,4.207 2.323,0 4.207,-1.883 4.207,-4.207 0,-2.324 -1.884,-4.208 -4.207,-4.208 -0.721,0 -1.397,0.181 -1.988,0.5 l -0.23,0.123 -1.705,-3.593 0.215,-0.109 c 1.114,-0.568 2.376,-0.888 3.71,-0.888 4.515,0 8.175,3.66 8.175,8.175 0,4.515 -3.66,8.175 -8.175,8.175 -4.516,0 -8.176,-3.66 -8.176,-8.175 -10e-4,-1.378 0.341,-2.679 0.945,-3.82 z"
           id="path226" />
      </defs>
      <clipPath
         id="clipPath163">
        <use
           height="908.92603"
           width="740.31598"
           y="0"
           x="0"
           style="overflow:visible"
           id="use161"
           overflow="visible"
           xlink:href="#SVGID_19_" />
      </clipPath>
      <path
         inkscape:connector-curvature="0"
         style="fill:#23230b"
         id="path537"
         d="m 602.154,63.196 0.194,-0.366 5.03,3.323 -0.126,0.29 c -0.337,0.775 -0.524,1.632 -0.524,2.535 0,3.516 2.851,6.367 6.367,6.367 3.516,0 6.366,-2.851 6.366,-6.367 0,-3.516 -2.85,-6.367 -6.366,-6.367 -1.091,0 -2.115,0.273 -3.01,0.754 l -0.349,0.188 -2.58,-5.438 0.326,-0.166 c 1.686,-0.86 3.594,-1.344 5.612,-1.344 6.833,0 12.373,5.54 12.373,12.373 0,6.833 -5.54,12.373 -12.373,12.373 -6.833,0 -12.372,-5.54 -12.372,-12.373 0.002,-2.086 0.518,-4.055 1.432,-5.782 z"
         clip-path="url(#SVGID_20_)" />
    </g>
  </g>
</svg>
